<?xml version="1.0" encoding="iso-8859-1"?>
<!-- Uploaded to: SVG Repo, www.svgrepo.com, Generator: SVG Repo Mixer Tools -->
<svg height="800px" width="800px" version="1.1" id="Capa_1" xmlns="http://www.w3.org/2000/svg" xmlns:xlink="http://www.w3.org/1999/xlink" 
	 viewBox="0 0 464 464" xml:space="preserve">
<g>
	<path style="fill:#B4E6F0;" d="M403.662,49.87c1.922,1.594,3.766,3.279,5.527,5.048C407.428,53.149,405.584,51.464,403.662,49.87z"
		/>
	<path style="fill:#B4E6F0;" d="M384.458,38.152c2.326,0.99,4.594,2.091,6.799,3.295C389.053,40.243,386.784,39.142,384.458,38.152z
		"/>
	<path style="fill:#B4E6F0;" d="M369.865,33.591c5.059,1.043,9.941,2.581,14.593,4.561
		C379.806,36.172,374.925,34.634,369.865,33.591z"/>
	<path style="fill:#B4E6F0;" d="M279.135,56.75c0.877,0.563,1.808,1.031,2.775,1.406C280.943,57.781,280.012,57.313,279.135,56.75z"
		/>
	<path style="fill:#B4E6F0;" d="M391.257,41.447c4.409,2.409,8.561,5.234,12.405,8.423
		C399.818,46.682,395.666,43.856,391.257,41.447z"/>
	<path style="fill:#B4E6F0;" d="M418.696,66.489c1.399,2.08,2.702,4.23,3.901,6.444C421.398,70.719,420.095,68.569,418.696,66.489z"
		/>
	<path style="fill:#B4E6F0;" d="M295.205,300.504L288,304.139l-7.205-3.634c-45.44-22.918-93.101-63.524-122.867-107.724
		c-7.871-6.254-16.769-10.866-26.282-13.651c26.613,51.48,79.028,106.531,149.604,139.378C283.391,319.5,285.695,320,288,320
		s4.609-0.5,6.75-1.492c1.918-0.893,3.818-1.807,5.709-2.731c4.819-8.258,8.875-16.552,12.023-24.77
		C306.715,294.436,300.942,297.611,295.205,300.504z"/>
	<path style="fill:#B4E6F0;" d="M464,110.156C464,49.414,414.746,0,354.207,0C330,0,306.969,7.82,288,22.266
		C269.031,7.82,246,0,221.793,0C161.254,0,112,49.414,112,110.156c0,10.51,1.848,22.021,5.409,34.123
		c5.797,0.396,11.505,1.247,17.087,2.53c-4.188-12.408-6.496-24.725-6.496-36.653C128,58.238,170.075,16,221.793,16
		c24.98,0,48.491,9.755,66.21,27.467C305.716,25.755,329.227,16,354.207,16C405.925,16,448,58.238,448,110.156
		c0,52.011-43.822,111.387-96.496,153.666c-0.767,7.813-2.432,16.06-4.956,24.605C420.234,236.354,464,161.405,464,110.156z"/>
	<path style="fill:#A0DCE6;" d="M280.795,300.504l7.205,3.634l7.205-3.634c5.737-2.894,11.51-6.069,17.277-9.498
		c2.971-7.756,5.125-15.442,6.346-22.965c-10.216,6.879-20.577,13.007-30.829,18.178c-2.171-1.095-4.347-2.232-6.525-3.411
		c-4.357-2.357-8.724-4.877-13.082-7.545c-3.268-2.001-6.531-4.086-9.78-6.249c-4.333-2.883-8.641-5.904-12.906-9.048
		c-1.066-0.786-2.13-1.58-3.19-2.38c-2.121-1.603-4.23-3.234-6.325-4.895c-5.236-4.149-10.382-8.475-15.399-12.945
		c-2.007-1.789-3.993-3.6-5.957-5.434s-3.904-3.688-5.819-5.563c-2.872-2.812-5.688-5.668-8.438-8.563
		c-5.851-6.16-11.4-12.494-16.581-18.94c-2.438,1.347-5.214,2.036-7.998,2.036c-2.078,0-4.156-0.375-6.09-1.125
		c-0.967-0.375-1.898-0.844-2.775-1.406c-0.877-0.563-1.7-1.219-2.451-1.969c-2.149-2.149-4.412-4.139-6.756-6.001
		C187.693,236.98,235.354,277.586,280.795,300.504z"/>
	<path style="fill:#A0DCE6;" d="M151.336,146.543c-0.786-2.074-1.514-4.142-2.181-6.204C145.82,130.031,144,119.894,144,110.156
		C144,67.063,178.898,32,221.793,32c20.711,0,40.203,8.094,54.891,22.781c0.751,0.75,1.574,1.406,2.451,1.969
		c0.877,0.563,1.808,1.031,2.775,1.406c1.934,0.75,4.012,1.125,6.09,1.125c4.156,0,8.313-1.5,11.316-4.5
		C314.004,40.094,333.496,32,354.207,32c5.362,0,10.599,0.548,15.658,1.591s9.941,2.581,14.593,4.561
		c2.326,0.99,4.594,2.091,6.799,3.295c4.409,2.409,8.561,5.234,12.405,8.423c1.922,1.594,3.766,3.279,5.527,5.048
		c3.522,3.538,6.708,7.413,9.507,11.571c1.399,2.08,2.702,4.23,3.901,6.444C428.592,84.007,432,96.689,432,110.156
		c0,43.081-35.617,93.987-80.556,132.889c0.367,3.655,0.556,7.361,0.556,11.111c0,3.136-0.172,6.364-0.496,9.666
		C404.178,221.543,448,162.167,448,110.156C448,58.238,405.925,16,354.207,16c-24.98,0-48.491,9.755-66.204,27.467
		C270.284,25.755,246.773,16,221.793,16C170.075,16,128,58.238,128,110.156c0,11.928,2.309,24.245,6.496,36.653
		c6.751,1.551,13.314,3.733,19.618,6.526C153.123,151.067,152.192,148.802,151.336,146.543z"/>
	<path style="fill:#FF8C87;" d="M306.696,210.489c1.399,2.08,2.702,4.23,3.901,6.444
		C309.398,214.719,308.095,212.569,306.696,210.489z"/>
	<path style="fill:#FF8C87;" d="M291.662,193.87c1.922,1.594,3.766,3.279,5.527,5.048
		C295.428,197.149,293.584,195.464,291.662,193.87z"/>
	<path style="fill:#FF8C87;" d="M279.257,185.447c4.409,2.409,8.561,5.234,12.405,8.423
		C287.818,190.682,283.666,187.856,279.257,185.447z"/>
	<path style="fill:#FF8C87;" d="M257.865,177.591c5.059,1.043,9.941,2.581,14.593,4.561
		C267.806,180.172,262.925,178.634,257.865,177.591z"/>
	<path style="fill:#FF8C87;" d="M272.458,182.152c2.326,0.99,4.594,2.091,6.799,3.295
		C277.053,184.243,274.784,183.142,272.458,182.152z"/>
	<path style="fill:#FF8C87;" d="M352,254.156c0-3.75-0.189-7.456-0.556-11.111C345.874,187.502,299.009,144,242.207,144
		C218,144,194.969,151.82,176,166.266c-6.813-5.188-14.158-9.507-21.886-12.931c-6.304-2.793-12.867-4.975-19.618-6.526
		c-5.582-1.283-11.29-2.133-17.087-2.53c-2.525-0.173-5.062-0.279-7.616-0.279C49.254,144,0,193.414,0,254.156
		c0,62.32,64.707,159.695,169.25,208.352C171.391,463.5,173.695,464,176,464s4.609-0.5,6.75-1.492
		c86.84-40.417,146.187-114.447,163.798-174.081c2.523-8.545,4.188-16.792,4.956-24.605C351.828,260.52,352,257.292,352,254.156z
		 M183.205,444.504L176,448.139l-7.205-3.634C95.312,407.443,16,324.129,16,254.156C16,202.238,58.075,160,109.793,160
		c24.98,0,48.491,9.755,66.21,27.467C193.716,169.755,217.227,160,242.207,160C293.925,160,336,202.238,336,254.156
		C336,324.129,256.688,407.443,183.205,444.504z"/>
	<path style="fill:#FF8C87;" d="M167.135,200.75c0.877,0.563,1.808,1.031,2.775,1.406
		C168.943,201.781,168.012,201.313,167.135,200.75z"/>
	<path style="fill:#E86464;" d="M336,254.156C336,202.238,293.925,160,242.207,160c-24.98,0-48.491,9.755-66.204,27.467
		C158.284,169.755,134.773,160,109.793,160C58.075,160,16,202.238,16,254.156c0,69.973,79.312,153.287,152.795,190.348l7.205,3.634
		l7.205-3.634C256.688,407.443,336,324.129,336,254.156z M176,430.219c-2.171-1.095-4.347-2.232-6.525-3.411
		c-4.357-2.357-8.724-4.877-13.082-7.545c-3.268-2.001-6.531-4.086-9.78-6.249c-4.333-2.883-8.641-5.904-12.906-9.048
		c-1.066-0.786-2.13-1.58-3.19-2.38c-2.121-1.603-4.23-3.234-6.325-4.895c-5.236-4.149-10.382-8.475-15.399-12.945
		c-2.007-1.789-3.993-3.6-5.957-5.434s-3.904-3.688-5.819-5.563c-2.872-2.812-5.688-5.668-8.438-8.563
		c-7.333-7.719-14.201-15.71-20.448-23.855c-4.686-6.109-9.022-12.305-12.944-18.538c-6.536-10.389-11.921-20.881-15.851-31.249
		c-0.786-2.074-1.514-4.142-2.181-6.204C33.82,274.031,32,263.894,32,254.156C32,211.063,66.898,176,109.793,176
		c7.502,0,14.84,1.077,21.853,3.129c9.513,2.785,18.411,7.397,26.282,13.651c2.344,1.862,4.607,3.852,6.756,6.001
		c0.751,0.75,1.574,1.406,2.451,1.969c0.877,0.563,1.808,1.031,2.775,1.406c1.934,0.75,4.012,1.125,6.09,1.125
		c2.784,0,5.56-0.689,7.998-2.036c1.201-0.663,2.327-1.474,3.318-2.464C202.004,184.094,221.496,176,242.207,176
		c5.362,0,10.599,0.548,15.658,1.591s9.941,2.581,14.593,4.561c2.326,0.99,4.594,2.091,6.799,3.295
		c4.409,2.409,8.561,5.234,12.405,8.423c1.922,1.594,3.766,3.279,5.527,5.048c3.522,3.538,6.708,7.413,9.507,11.571
		c1.399,2.08,2.702,4.23,3.901,6.444c5.995,11.073,9.403,23.756,9.403,37.223c0,4.548-0.408,9.186-1.171,13.885
		c-1.222,7.523-3.375,15.209-6.346,22.965c-3.148,8.218-7.204,16.512-12.023,24.77C273.746,361.55,223.683,406.169,176,430.219z"/>
</g>
</svg>