<?xml version="1.0" encoding="iso-8859-1"?>
<!-- Uploaded to: SVG Repo, www.svgrepo.com, Generator: SVG Repo Mixer Tools -->
<svg height="800px" width="800px" version="1.1" id="Layer_1" xmlns="http://www.w3.org/2000/svg" xmlns:xlink="http://www.w3.org/1999/xlink" 
	 viewBox="0 0 512.001 512.001" xml:space="preserve">
<path style="fill:#F5DF5D;" d="M437.526,236.682l-24.559-44.959c-7.474-13.683-14.044-27.825-20.266-42.122
	c-17.436-40.063-57.371-68.076-103.853-68.076l0,0c-62.525,0-113.211,50.686-113.211,113.211v64.391
	c0,43.439,24.466,81.159,60.369,100.142c8.892,4.701,14.457,13.93,14.457,23.988v54.783h76.768v-54.781
	c0-10.058,5.566-19.286,14.457-23.988c35.903-18.983,60.369-56.703,60.369-100.142v-7.933h26.857
	C436.366,251.196,441.097,243.22,437.526,236.682z"/>
<circle style="fill:#394049;" cx="350.792" cy="201.284" r="13.286"/>
<path style="fill:#0069A3;" d="M422.707,512.001H119.788c-5.535,0-10.021-4.487-10.021-10.021l0,0
	c0-35.312,28.626-63.937,63.937-63.937h194.268c17.649,0,33.99,9.307,42.993,24.488l20.363,34.337
	C435.289,503.546,430.474,512.001,422.707,512.001z"/>
<path style="opacity:0.15;enable-background:new    ;" d="M432.399,499.394H135.36c-5.535,0-10.021-4.487-10.021-10.022l0,0
	c0-16.447,6.215-31.44,16.419-42.769c-19.117,11.053-31.99,31.705-31.99,55.374l0,0c0,5.535,4.487,10.021,10.021,10.021h302.919
	C429.518,512.001,434.056,505.499,432.399,499.394z"/>
<path style="fill:#4A5058;" d="M197.009,475.021L197.009,475.021c-34.384,0-62.258-27.874-62.258-62.258V150.016h124.516v262.747
	C259.267,447.147,231.393,475.021,197.009,475.021z"/>
<path style="opacity:0.15;enable-background:new    ;" d="M288.849,81.526L288.849,81.526c-46.641,0-86.688,28.208-104.028,68.491
	h-50.068v147.275l124.516-71.889v187.361c0,9-1.914,17.552-5.351,25.278h12.569c3.438-7.727,5.364-16.275,5.364-25.278V218.138
	l120.403-69.514C374.595,109.086,334.947,81.526,288.849,81.526z"/>
<path style="fill:#8CCFDE;" d="M102.83,243.27C58.051,165.71,84.625,66.533,162.186,21.753
	c77.56-44.78,176.737-18.205,221.517,59.355L102.83,243.27z"/>
<path style="fill:#E45D4C;" d="M355.197,44.81L85.647,200.435c3.567,14.675,9.251,29.095,17.183,42.836L383.702,81.109
	C375.769,67.368,366.122,55.237,355.197,44.81z"/>
<path style="fill:#8CCFDE;" d="M401.705,70.45L84.598,253.531c-10.842,6.26-14.557,20.124-8.297,30.966l0,0
	c6.26,10.842,20.124,14.557,30.966,8.297l317.107-183.081c10.842-6.26,14.557-20.124,8.297-30.966l0,0
	C426.411,67.905,412.547,64.191,401.705,70.45z"/>
<g>
	<path style="opacity:0.15;fill:#25292F;enable-background:new    ;" d="M125.571,282.226c-10.842,6.26-24.706,2.545-30.966-8.297
		l0,0c-6.26-10.842-2.545-24.706,8.297-30.966L401.705,70.45l0,0L84.598,253.531c-10.842,6.26-14.557,20.124-8.297,30.966
		c6.26,10.842,20.124,14.557,30.966,8.297l317.107-183.081l0.001-0.001L125.571,282.226z"/>
	<path style="opacity:0.15;fill:#25292F;enable-background:new    ;" d="M176.047,14.613c-4.684,2.14-9.311,4.512-13.862,7.14
		C84.625,66.533,58.051,165.71,102.83,243.27l21.875-12.63C81.857,155.956,105.019,61.395,176.047,14.613z"/>
</g>
</svg>